<svg width="15" height="16" viewBox="0 0 15 16" fill="none" xmlns="http://www.w3.org/2000/svg">
<rect width="15" height="16" fill="#FFC645"/>
<g clip-path="url(#clip0_112_471)">
<path d="M7.5 11.25C5.98122 11.25 4.75 10.0188 4.75 8.5C4.75 6.98122 5.98122 5.75 7.5 5.75C9.01878 5.75 10.25 6.98122 10.25 8.5C10.25 10.0188 9.01878 11.25 7.5 11.25ZM7.5 10.15C8.41127 10.15 9.15 9.41127 9.15 8.5C9.15 7.58873 8.41127 6.85 7.5 6.85C6.58873 6.85 5.85 7.58873 5.85 8.5C5.85 9.41127 6.58873 10.15 7.5 10.15ZM7.5 3C7.80376 3 8.05 3.24624 8.05 3.55V4.1C8.05 4.40376 7.80376 4.65 7.5 4.65C7.19624 4.65 6.95 4.40376 6.95 4.1V3.55C6.95 3.24624 7.19624 3 7.5 3ZM11.3891 4.61091C11.6039 4.8257 11.6039 5.17394 11.3891 5.38873L11.0002 5.77764C10.7854 5.99243 10.4371 5.99243 10.2224 5.77764C10.0076 5.56285 10.0076 5.21461 10.2224 4.99982L10.6113 4.61091C10.8261 4.39612 11.1743 4.39612 11.3891 4.61091ZM13 8.5C13 8.80376 12.7538 9.05 12.45 9.05H11.9C11.5962 9.05 11.35 8.80376 11.35 8.5C11.35 8.19624 11.5962 7.95 11.9 7.95H12.45C12.7538 7.95 13 8.19624 13 8.5ZM11.3891 12.3891C11.1743 12.6039 10.8261 12.6039 10.6113 12.3891L10.2224 12.0002C10.0076 11.7854 10.0076 11.4371 10.2224 11.2224C10.4371 11.0076 10.7854 11.0076 11.0002 11.2224L11.3891 11.6113C11.6039 11.8261 11.6039 12.1743 11.3891 12.3891ZM7.5 14C7.19624 14 6.95 13.7538 6.95 13.45V12.9C6.95 12.5962 7.19624 12.35 7.5 12.35C7.80376 12.35 8.05 12.5962 8.05 12.9V13.45C8.05 13.7538 7.80376 14 7.5 14ZM3.61091 12.3891C3.39612 12.1743 3.39612 11.8261 3.61091 11.6113L3.99982 11.2224C4.21461 11.0076 4.56285 11.0076 4.77764 11.2224C4.99243 11.4371 4.99243 11.7854 4.77764 12.0002L4.38873 12.3891C4.17394 12.6039 3.8257 12.6039 3.61091 12.3891ZM2 8.5C2 8.19624 2.24624 7.95 2.55 7.95H3.1C3.40376 7.95 3.65 8.19624 3.65 8.5C3.65 8.80376 3.40376 9.05 3.1 9.05H2.55C2.24624 9.05 2 8.80376 2 8.5ZM3.61091 4.61091C3.8257 4.39612 4.17394 4.39612 4.38873 4.61091L4.77764 4.99982C4.99243 5.21461 4.99243 5.56285 4.77764 5.77764C4.56285 5.99243 4.21461 5.99243 3.99982 5.77764L3.61091 5.38873C3.39612 5.17394 3.39612 4.8257 3.61091 4.61091Z" fill="#DA5E17"/>
</g>
<defs>
<clipPath id="clip0_112_471">
<rect width="11" height="11" fill="white" transform="translate(2 3)"/>
</clipPath>
</defs>
</svg>
